/* XPM */
static char * heart_25_17_xpm[] = {
"25 17 93 2",
"  	c None",
". 	c #CE2941",
"+ 	c #CD2C44",
"@ 	c #CE2B43",
"# 	c #CF2941",
"$ 	c #CD2A43",
"% 	c #CE2D46",
"& 	c #CE2A42",
"* 	c #EB3F7B",
"= 	c #EB457E",
"- 	c #E93266",
"; 	c #E6113A",
"> 	c #EB407B",
", 	c #EB437D",
"' 	c #E82B5C",
") 	c #E1366B",
"! 	c #FB559A",
"~ 	c #FD5198",
"{ 	c #FB3F7C",
"] 	c #F51440",
"^ 	c #E01038",
"/ 	c #E5366E",
"( 	c #FF5098",
"_ 	c #F9376F",
": 	c #DE0F37",
"< 	c #DC2A5A",
"[ 	c #FE5298",
"} 	c #FE4D93",
"| 	c #FA3C77",
"1 	c #E11038",
"2 	c #E5346B",
"3 	c #F9346B",
"4 	c #D80E35",
"5 	c #FF5198",
"6 	c #F7295B",
"7 	c #F31842",
"8 	c #F83770",
"9 	c #F7295C",
"0 	c #D9163F",
"a 	c #F72A5C",
"b 	c #F51A47",
"c 	c #F41842",
"d 	c #F31A44",
"e 	c #F51F4D",
"f 	c #D20C32",
"g 	c #F31742",
"h 	c #F31B45",
"i 	c #F41541",
"j 	c #F31540",
"k 	c #F41843",
"l 	c #C60A2F",
"m 	c #CD0B30",
"n 	c #EC123D",
"o 	c #F3143F",
"p 	c #F41440",
"q 	c #F31440",
"r 	c #F11A44",
"s 	c #EA153E",
"t 	c #AD0729",
"u 	c #ED123D",
"v 	c #F31C46",
"w 	c #EB163F",
"x 	c #9E0527",
"y 	c #CC0E32",
"z 	c #DD163C",
"A 	c #F41641",
"B 	c #DD1238",
"C 	c #AC0629",
"D 	c #C60A2E",
"E 	c #D10D32",
"F 	c #DC1339",
"G 	c #D10C32",
"H 	c #C70A2E",
"I 	c #C31A34",
"J 	c #C4092E",
"K 	c #D30C32",
"L 	c #F21B45",
"M 	c #E4153D",
"N 	c #C31F36",
"O 	c #EB123C",
"P 	c #F2133F",
"Q 	c #EA143D",
"R 	c #AA0629",
"S 	c #A5082A",
"T 	c #C90E32",
"U 	c #D00C31",
"V 	c #CB0A30",
"W 	c #A40628",
"X 	c #BB283C",
"Y 	c #C30A2E",
"Z 	c #BE2038",
"` 	c #C31B34",
" .	c #C22238",
"      . + @ #         # $ % &                     ",
"    * = - ; ;         > , ' ; ;                   ",
"  ) ! ~ { ] ] ^     / ( ( _ ] ] :                 ",
"< [ ~ } | ] ] ] 1 2 ( ( } 3 ] ] ] 4               ",
"< ( 5 6 ] ] ] ] 7 8 5 5 9 ] ] ] ] 4               ",
"0 a a b ] ] ] c d e a a b ] ] ] ] 4               ",
"f : ] ] ] ] g h i ] ] ] ] ] j k : f               ",
"l m n o ] g h p ] ] ] ] ] q r s m l               ",
"t m m u g h i ] ] ] ] ] p v w m m t               ",
"  x m y z i ] ] ] ] ] A h B m m x                 ",
"    C D E : ] ] ] ] A h F G H C                   ",
"      I J K ; p ] p L M f J I                     ",
"        N D m O P P Q m D N                       ",
"          R m m ; ; m m R                         ",
"            S T U U V W                           ",
"              X Y Y Z                             ",
"                `  .                              "};
