/* XPM */
static char * loading_xpm[] = {
"100 59 28 1",
" 	c #000000",
".	c #020202",
"+	c #010101",
"@	c #030303",
"#	c #060606",
"$	c #070707",
"%	c #050505",
"&	c #040404",
"*	c #0C0C0C",
"=	c #080808",
"-	c #FFFFFF",
";	c #FEFEFE",
">	c #090909",
",	c #FAFAFA",
"'	c #FDFDFD",
")	c #F8F8F8",
"!	c #FCFCFC",
"~	c #FBFBFB",
"{	c #F9F9F9",
"]	c #F6F6F6",
"^	c #0A0A0A",
"/	c #F7F7F7",
"(	c #F5F5F5",
"_	c #F4F4F4",
":	c #F1F1F1",
"<	c #0D0D0D",
"[	c #0E0E0E",
"}	c #0B0B0B",
"                                                                                                    ",
"                                                                                                    ",
"                                                                                                    ",
"                                                                                                    ",
"                                                                                                    ",
"                                                                                                    ",
"                                                                                                    ",
"                                                                                                    ",
"                                                                                                    ",
"                                                                                                    ",
"                                                                                                    ",
"                                                                                                    ",
"                                                                                                    ",
"                                                                                                    ",
"                                                                                                    ",
"                                                                                                    ",
". +. .   + . @ +  . @ .+ . .  #  $ +.+++ % @  +  # ++    #  . . .    & @ #  . +                     ",
"  & + $ + &    @@    &  + @  + #  @+  .  *+ =   @ +% @& # +  @ +  & . & + + .+ @                    ",
" + +% &  +   $@   %&++@+ +  .#  @  @+ +.+  + + +  #       #.  + @ +$    &@ %                        ",
". &    @+       %+    + + +@  #@  $  +  &%    @ @   +. $@#  @+ +  + .@ @    &. +                    ",
" +  -;- . $  > -,-'--- . .%  -)!@    -;;~,-&.  -,!--!-  !)-  %. ---=   --~--!+                      ",
"@ @ ~-'.&  %  $,-~;;~-  .  .+)-- #+ ${----~+  @!--,'-!+ --)+.  .--!  > !!-;--  @                    ",
"   @--,  &   .{-'>  -{-  . -;--)-&   -]; .--~+ . -~-   %)--;- . -;- &,~- % '--                      ",
" .  -!- ++ @. -;- & ;-' .  ---~-~@+  ;--+ ;!-   @;!-  = -~---  .'-;+ --) + -!- @                    ",
" + +---  +  + ---   --- @!--- @.-;-  -;-  @!-' . ---+ + ~-~!-  .-;-  -;- @ -!'. & ..+ %. @  @ @     ",
" + +---  +  + ---   ---  -,-! + -;-  -;-&  -;-   ---+ + -,'-{-  -;-  -;-  ^ .&  +  % &    % & *     ",
" + +---  +  + ---   --- &'-!-$.@-;-  -;- @ '-- % ---+ + ,--;/'= -;-  -;-    . &@+#%  @ @%    #      ",
" + +---  +  + ---   ---  !-;-)!--;-  -;-+. '--   ---+ + -)~&.-)!-;-  -;- & &+ .  + .^  + @ &# +%    ",
" + +---  +  + ---   ---  -~--# $-;-  -;-. +-,-&  ---+ + ;!-  .---;-  -;-# -~]-$   >@ %++@  +  .     ",
" + +---  +  + ---   --- >(;-' # -;-  -;- & '-- @ ---+ + --!& .-;-;-  -;- +;--; $$&  ^ +     $@ .    ",
" + +---  +  + ---   ---  ;--- @ -;-  -;-  .--- @ ---+ + -,,@@ -~-;-  -;-@ +_--    +%  @& &    @     ",
" + +---  +  + ---   --- .'-_-  +-;-  -;-+@'-'@   ---+ + ;-- .  .-;-  -;- @ -;'@. -;;+.!--  --~ @    ",
" @  -'-.+. &  ---  +;--  ;;-,+. -;-  -;-+ -'-@  +-~'. + '-- %  @'-~  -!-+ @;-- .@-!-  '-- .---.     ",
"%  #'--!;)-- $ -~----' +&--]-@ +;-!%%!-;!-;%  @-!----' .--)& % +-;-## +----~--   -;-@ --]# -!)$     ",
"  + --{---'-&  --!;-!-#  ----   ;--  --;!-- @  --;--'; .-/-% &% -~-  . -',--:-...';~ +{!-  -'- @    ",
" < + +. @  % +$ & = +@  & @ & # . ++++ .#  @@.& + & %.&  $     #$ +. .  .# ..  .+  .#^.   @ .  &    ",
"+  +%%  +   .+.% %     #     $ @ . && .  .%   @    >   + %@&   + ^  ++.   & +$   %@    .+. . .+     ",
"% ^. +%  > .+   @@  &+   =  .     @  @  %+  .++#+.   $   @  . # + %     %&  .  % &  [  ++@ .@  @    ",
" . &% @ & # = @% %  # +@  +&  % .++  ++.  }++% @ &+&# % % =@   $@  ++  @  +& #+ + @< % %@ &   >     ",
"@+ @+  + &+  @  . #     & .  # . . && . +  + && &   +. @  . .+%  @ @. &  +@ .   .++  .@  $+ %.      ",
"                                                                                                    ",
"                                                                                                    ",
"                                                                                                    ",
"                                                                                                    ",
"                                                                                                    ",
"                                                                                                    ",
"                                                                                                    ",
"                                                                                                    ",
"                                                                                                    ",
"                                                                                                    ",
"                                                                                                    ",
"                                                                                                    ",
"                                                                                                    ",
"                                                                                                    ",
"                                                                                                    ",
"                                                                                                    ",
"                                                                                                    ",
"                                                                                                    ",
"                                                                                                    "};
