/* XPM */
static char * sablier_1_xpm[] = {
"100 100 26 1",
" 	c #000000",
".	c #FFFFFF",
"+	c #FEFEFE",
"@	c #010101",
"#	c #FBFBFB",
"$	c #FAFAFA",
"%	c #FDFDFD",
"&	c #020202",
"*	c #FCFCFC",
"=	c #F8F8F8",
"-	c #F6F6F6",
";	c #F7F7F7",
">	c #070707",
",	c #030303",
"'	c #F9F9F9",
")	c #050505",
"!	c #090909",
"~	c #080808",
"{	c #040404",
"]	c #060606",
"^	c #F5F5F5",
"/	c #F4F4F4",
"(	c #E8E8E8",
"_	c #0C0C0C",
":	c #0A0A0A",
"<	c #0B0B0B",
"                 .................................................................+.. @             ",
"                 .................................................................+.. @             ",
"                 .................................................................+.. @             ",
"                 .................................................................+.. @             ",
"                 .................................................................+.. @             ",
"                 .................................................................+.. @             ",
"                 .................................................................+.. @             ",
"                 .................................................................+.. @             ",
"                 .+....#.$+%.%...........................................$....$.#...#&              ",
"                 *.%*.*.=...#-.$........................................%.+..+.%.;#*.> ,            ",
"                ,#....#..'.%..*.++++++++++++++++++++++++++++++++++++++++%......%#.+.. )             ",
"                 .+..+.*+...#*$..........................................$.++.$.+%%+.@)             ",
"                 *.%*.*.'.....=.........................................+.%..%.+.%..$ !             ",
"                ) @@ & ..$#.$ ~                                          ......  &@ @&              ",
"                 @@@ @@#+.$.#>                                          {#+%%+#{, > ) ]]            ",
"                & &  & .*..$.  &                                         ...... &  ) @@             ",
"                     @ ...+.. @                                          .+..+.                     ",
"                     @ ...+.. @                                          .+..+.                     ",
"                     @ ...+.. @                                          .+..+.                     ",
"                     @ ...+.. @                                          .+..+.                     ",
"                     @ ...+.. @                                          .+..+.                     ",
"                     @ ...+.. @                                          .+..+.                     ",
"                     @ ...+.. @                                          .+..+.                     ",
"                     @ ...+.. @                                          .+..+.                     ",
"                     @ ......  ,@ &@ &@          {  &  &         &  {  @ ..#...                     ",
"                     @ ..'.#+]&{   ..#*.........  @  &+..........+.  ,, {.%'%.$,                    ",
"                     @ .*.+.$@, , @.$..+........@@ @ @.%........*.+ )  @ $*..;.                     ",
"                     @ ..**.. >] @&#+.*......... & @& .+.........+*{  , @..^.+.                     ",
"                     @ ....$.]   @&#+.*......... & @& .+.........+*{  ,  ;..+*')                    ",
"                     @ .*.#.%  &, @.$..+........@@ @ @.%........*.+ )  @,.$.+..                     ",
"                     @ ..$*.*{,  @ ..**.........@ @  &...........+.  ,,  %+=...                     ",
"                     @ .#.....'..%..$..+........+.+%..%.........+.*+.%+..%..+..                     ",
"                        & )  .*..-.. {    ..+.#..*..+.%..*..  ,   .*.%... { @& @                    ",
"                         ~ )&#..$.'#~   {,$*.'.*+.%..%%+..%. &  & ....+**{ ]& >                     ",
"                        ~   {.'..^..   ]  ....$..'.+...%+++. &@@ {.#*.%..@,  ]                      ",
"                         , & #....*#&,{ ,@'+...%#.%%#%/...+$)@  { #%..$**@ {  &,                    ",
"                        )  >,..++...@  @ )%.'*#..;.....*+#*. ,{@ &..+...%~  @@&                     ",
"                         { ) .$%++..&&&   ..+.*...#+*%......      ...^.-.  { &@                     ",
"                        & ]@  ! &  %*.**.#@& &  *...*. {    ......#  , )  { )  )                    ",
"                         )  ,    { ...*..*&  &@&..#.+$> @&@,*.%+%..&    @  ]  ,                     ",
"                                 , +.%+.+. @ , &%.*... @   ,%....*.@ @@                             ",
"                                @ @.+.+#.*,&@ & .%..+*, &   ...%+.+ @ @{                            ",
"                                , )%*+..+.  ,, ]'.**.. &   ,%...%.$&,&                              ",
"                                 ) +.+***. ,&   ...%%. ,& , .%.+.'.  @,&                            ",
"                                @ )   ,{, .%%...   &, .*+.%. , & ]  )                               ",
"                                 { @{@  & ..**.'] ,,  .+...%,   & ]   @{                            ",
"                                 @  & @) ,*+..%. & @&,*.%...   &  ,  {                              ",
"                                @ &@ @@ @ ...*.%& , @ .+...%,    {  @  &                            ",
"                                          ....+. @  @ .....+@                                       ",
"                                          ....+. @  @ .....+@                                       ",
"                                          ....+. @  @ .....+@                                       ",
"                                          ....+. @  @ .....+@                                       ",
"                                          ....+. @  @ .....+@                                       ",
"                                          ....+. @  @ .....+@                                       ",
"                                          ....+. @  @ .....+@                                       ",
"                                          ....+. @  @ .....+@                                       ",
"                         @ @@& & { ..$.+%. &             , {#.#..%.&  && ) >  ]                     ",
"                        ), && , &  *#.;..#  { >           & .*%..+. ,]  & ,  { @                    ",
"                          {) & @ ]&+.*.*.%> @, )        ]  )*..#.#*,   , @ {> ]&                    ",
"                        {   {{ &{  .#.%...  { @          ,{ .'$..=.   , &&&  &                      ",
"                          ,  & { &&+$.$..;)   )@        ,& &......-@& &,@  &   &                    ",
"                        &&  > ] ] ].*#.*.. @&~          &   %+%*#.. @    {, @  {                    ",
"                             .(..$$.....##  , {          @@ .....#.*....., ] {@                     ",
"                           > %.++.++ , { &{ @  {         , @ & @ )%.%.*.%)  {@ )                    ",
"                @ & >  @@ )  ..%+.+.   @            @ @         & .+.+..*{  ] )                     ",
"                & )  ~   ] @,.+..*..  ,          _  @, )         )*+../.+@@  &{                     ",
"                 > {  ] &  ~ '.*.*+. @,         { & & :         { .*.#.#. &{ & @                    ",
"                @ @{) ]  @&  .#.....   @         , &            @&..+.%..  @, :                     ",
"                @{     @ )  {+..*.$. { ,         &{@   {         ,...'+.% &&                        ",
"                  @ <> .*.;..    &{ )  ,        .#.#%. {         ) &) ) {.%=...]                    ",
"                )  ,  &*...$+ {,)  ] {&         ..$..$]         ) {  {   #..-..                     ",
"                 ,@ @&@...$.*&&  ,  &  @        .$..*.&         &  ,  ] &.+%.+%)                    ",
"                     @ ...+.. @         &  ,  ] .$..*.&  ,  &  @         .+..+.                     ",
"                     @ ...+.. @         ) {  {  ..'..'{ )  ] {&          .+..+.                     ",
"                     @ ...+.. @          ) &) ) .*.*+. ] &{ )  ,         .+..+.                     ",
"                     @ ...+.. @          ,...'+.%...+%*.*.$. { ,         .+..+.                     ",
"                     @ ...+.. @         @&..+.%.+.%...++....   @         .+..+.                     ",
"                     @ ...+.. @         { .*.#.#.;.%.#.#.*+. @,          .+..+.                     ",
"                     @ ...+.. @          )*+../.*.=%+.'..*..  ,          .+..+.                     ",
"                     @ ...+.. @         & .+.+.......+.%+.+.   @         .+..+.                     ",
"                 @    @+.....  ,@ &@ &@  ).%.%#.........%.%. @ @ &  {  @@+....+@@    @>             ",
"                ) @  & ..'.#+]&{   ..#*.$%$+.%.+........%..+.....+.  ,,  .+..+.  ) )                ",
"                 { &@ ,'*.+.$@, , @.$..+..*...=+............+%%**.+ )  @,$.++.$,{ @ )  <            ",
"                 )@  &)+.**.. >] @&#+.*..'..=$............*......+*{  , @$+..+$@ {&& :              ",
"                 @ && @+...$.]   @&#+.*...'....*........$..*.=$..+*{  , &..%%..&   >  >&            ",
"                @ ,  , .*.#.%  &, @.$..++..*+.;..........$%.%..#*.+ )  @ .$..$. { { &,,             ",
"                &  &@  ..$*.*{,  @ ..**..%%..$.#........%..'.#+..+.  ,,  ..++..  ), ,  &            ",
"                 ...+..##.....'..%..$..+*.#.%+..........%.%.#.*.+.*+.%+..#....#..#+.. >             ",
"                 .................................................................+.. @             ",
"                 .................................................................+.. @             ",
"                 .................................................................+.. @             ",
"                 .................................................................+.. @             ",
"                 .................................................................+.. @             ",
"                 .................................................................+.. @             ",
"                 .................................................................+.. @             ",
"                 .................................................................+.. @             ",
"                 .................................................................+.. @             ",
"                 .................................................................+.. @             ",
"                 .................................................................+.. @             ",
"                 .................................................................+.. @             "};
