/* XPM */
static char * sablier_0_xpm[] = {
"100 100 24 1",
" 	c #000000",
".	c #FFFFFF",
"+	c #FEFEFE",
"@	c #010101",
"#	c #FBFBFB",
"$	c #FAFAFA",
"%	c #FDFDFD",
"&	c #F8F8F8",
"*	c #020202",
"=	c #FCFCFC",
"-	c #F6F6F6",
";	c #F7F7F7",
">	c #070707",
",	c #030303",
"'	c #F9F9F9",
")	c #050505",
"!	c #090909",
"~	c #080808",
"{	c #F4F4F4",
"]	c #060606",
"^	c #040404",
"/	c #F5F5F5",
"(	c #0B0B0B",
"_	c #0A0A0A",
"                 .................................................................+.. @             ",
"                 .................................................................+.. @             ",
"                 .................................................................+.. @             ",
"                 .................................................................+.. @             ",
"                 .................................................................+.. @             ",
"                 .................................................................+.. @             ",
"                 .................................................................+.. @             ",
"                 .................................................................+.. @             ",
"                 .+....#.$+%.%..........................................+.%.&..+#...#*              ",
"                 =.%=.=.&...#-.$........................................%.$..;...;#=.> ,            ",
"                ,#....#..'.%..=.++++++++++++++++++++++++++++++++++++++++.&.=..'.#.+.. )             ",
"                 .+..+.=+...#=$...........................................+=$.'.+%%+.@)             ",
"                 =.%=.=.'.....&.........................................+#.....+.%..$ !             ",
"                ) @@ * ..$#.$ ~                                         ....{&.  *@ @*              ",
"                 @@@ @@#+.$.#>                                          $..=..%,, > ) ]]            ",
"                * *  * .=..$.  *                                        .=+.+%+ *  ) @@             ",
"                     @ .=..$.  *                                        .......                     ",
"                     @ .+.$.#>                                          .......                     ",
"                     @ ..$#.$ ~                                         .......                     ",
"                     @ .'.....&................................................                     ",
"                     @ .+...#=$................................................                     ",
"                     @ ..'.%..=.++++++++++++++++++++++++++++++++++++++++.......                     ",
"                     @ .&...#-.$...............................................                     ",
"                     @ ..$+%.%.................................................                     ",
"                     @ .+..$..=..=..$..+........................+.%+.%+........                     ",
"                     @ ..%%.. *  * ..%%..........................+.  ,* .......                     ",
"                     @ .=..&.  @@  .&..=........................=.+ )  @.......                     ",
"                     @ ..=..=,@  @,=..=..........................+=^  , .......                     ",
"                     @ ..=..=,@  @,=..=..........................+=^  , .......                     ",
"                     @ .=..&.  @@  .&..=........................=.+ )  @.......                     ",
"                     @ ..%%.. *  * ..%%..........................+.  ,* .......                     ",
"                     @ .+..$..=..=..$..+........................+.%+.%+........                     ",
"                        * )  .=..-.. ^    ..+.#..=..+.%..=..  ,   .=.%... ^ @* @                    ",
"                         ~ )*#..$.'#~   ^,$=.'.=+.%..%%+..%. *  * ....+==^ ]* >                     ",
"                        ~   ^.'../..   ]  ....$..'.+...%+++. *@@ ^.#=.%..@,  ]                      ",
"                         , * #....=#*,^ ,@'+...%#.%%#%{...+$)@  ^ #%..$==@ ^  *,                    ",
"                        )  >,..++...@  @ )%.'=#..;.....=+#=. ,^@ *..+...%~  @@*                     ",
"                         ^ ) .$%++..***   ..+.=...#+=%......      .../.-.  ^ *@                     ",
"                        * ]@  ! *  %=.==.#@* *  =...=. ^    ......#  , )  ^ )  )                    ",
"                         )  ,    ^ ...=..=*  *@*..#.+$> @*@,=.%+%..*    @  ]  ,                     ",
"                                 , +.%+.+. @ , *%.=... @   ,%....=.@ @@                             ",
"                                @ @.+.+#.=,*@ * .%..+=, *   ...%+.+ @ @^                            ",
"                                , )%=+..+.  ,, ]'.==.. *   ,%...%.$*,*                              ",
"                                 ) +.+===. ,*   ...%%. ,* , .%.+.'.  @,*                            ",
"                                @ )   ,^, .%%...   *, .=+.%. , * ]  )                               ",
"                                 ^ @^@  * ..==.'] ,,  .+...%,   * ]   @^                            ",
"                                 @  * @) ,=+..%. * @*,=.%...   *  ,  ^                              ",
"                                @ *@ @@ @ ...=.%* , @ .+...%,    ^  @  *                            ",
"                                          ....+. @  @ .....+@                                       ",
"                                          ....+. @  @ .....+@                                       ",
"                                          ....+. @  @ .....+@                                       ",
"                                          ....+. @  @ .....+@                                       ",
"                                          ....+. @  @ .....+@                                       ",
"                                          ....+. @  @ .....+@                                       ",
"                                          ....+. @  @ .....+@                                       ",
"                                          ....+. @  @ .....+@                                       ",
"                         ] ^@ ^  ] +.#...+)    @           )$..+..%, @   ) >  ]                     ",
"                        ) *  ,  ] !.;...++ @@ )          *  .+=.%.%   @** ,  ^ @                    ",
"                         ) ~  >  ~ &...'=. ) * ,         * *%.%..=')* *  @ ^> ]*                    ",
"                        )  @,,    ].==#../    (         @)*@..%.#..,  ),***  *                      ",
"                         **     * *=+..+#.,)@^ @           @=....%$ @   @  *   *                    ",
"                        , , , ]** @%%+%...    ,@        * , .+....+  ! ~ ^, @  ^                    ",
"                         > * .;.+=.., ,,^ ] @@*            >  *  @...#.'., ] ^@                     ",
"                        *  ) ....&.%  ,  ~  * ,@         @  @@  * +++...%)  ^@ )                    ",
"                 * @  ***   )#..+.+.   @        @ @@ @          * .+.+..%, @@ ,                     ",
"                * @@@    @^, #+$.=..  ,           * ,*           )=+..{..      *                    ",
"                ^ *  , ,)    ....=+. @,          *  @, )        ^ .=.#.#. @  @ @                    ",
"                 ^ ]     ] @,.;.....   @        @ , , ,         @*..+.%.#*    *                     ",
"                ) @ ), .%+..+.$.=.$. ^ ,        +.+... ^         ,...'+..%....%^                    ",
"                 ^ ^*  %.'+.=*   *^ )  ,        .%...=*          ) *) ) +....+.                     ",
"                 ]   @@.#.&.=*@ )  ] ^*         ...=.%*,        ) ^  ^  %......                     ",
"                @ @ *  +.=.$.  @ ,  *  @        %..#.+ @        *  ,  ] .%.+..%,                    ",
"                     @ ...+.. @         *  ,  ] .$..=.*  ,  *  @        .......                     ",
"                     @ ...+.. @         ) ^  ^  ..'..'^ )  ] ^*         .......                     ",
"                     @ ...+.. @          ) *) ) .=.=+. ] *^ )  ,        .......                     ",
"                     @ ...+.. @          ,...'+.%...+%=.=.$. ^ ,        .......                     ",
"                     @ ...+.. @         @*..+.%.+.%...++....   @        .......                     ",
"                     @ ...+.. @         ^ .=.#.#.;.%.#.#.=+. @,         .......                     ",
"                     @ ...+.. @          )=+..{.=.&%+.'..=..  ,         .......                     ",
"                     @ ...+.. @         * .+.+.......+.%+.+.   @        .......                     ",
"                 @    @+.....  ,         ^.%.%#.........+.+. * *        %...#.. @    @>             ",
"                ) @  * ..'.#+]*^            * )           @ *  ,        .$.%'+.^ ) )                ",
"                 ^ *@ ,'=.+.$@,         @) * >  @@@@@@@@@               %.&..=' ^ @ )  (            ",
"                 )@  *)+.==.. >]        * ^*  ]*        *@ @@]@         =.../..  ^** _              ",
"                 @ ** @+...$.]          @> *,@@          *^ @  *        .&%+..;    >  >*            ",
"                @ ,  , .=.#.%  *          ,  * ^@@@@@@@@]  ^ ^]         #..+.$.,^ ^ *,,             ",
"                *  *@  ..$=.=^,             , >           * ^           +...'+%  ), ,  *            ",
"                 ...+..##.....'.........=.#.%++.........+.+.=.%............+..%..#+.. >             ",
"                 .................................................................+.. @             ",
"                 .................................................................+.. @             ",
"                 .................................................................+.. @             ",
"                 .................................................................+.. @             ",
"                 .................................................................+.. @             ",
"                 .................................................................+.. @             ",
"                 .................................................................+.. @             ",
"                 .................................................................+.. @             ",
"                 .................................................................+.. @             ",
"                 .................................................................+.. @             ",
"                 .................................................................+.. @             ",
"                 .................................................................+.. @             "};
