/* XPM */
static char * sablier_2_xpm[] = {
"100 100 26 1",
" 	c #000000",
".	c #FFFFFF",
"+	c #FEFEFE",
"@	c #010101",
"#	c #FBFBFB",
"$	c #FAFAFA",
"%	c #FDFDFD",
"&	c #020202",
"*	c #FCFCFC",
"=	c #F8F8F8",
"-	c #F6F6F6",
";	c #F7F7F7",
">	c #070707",
",	c #030303",
"'	c #F9F9F9",
")	c #050505",
"!	c #090909",
"~	c #080808",
"{	c #040404",
"]	c #060606",
"^	c #F4F4F4",
"/	c #0A0A0A",
"(	c #F5F5F5",
"_	c #0B0B0B",
":	c #595959",
"<	c #F2F2F2",
"                 .................................................................+.. @             ",
"                 .................................................................+.. @             ",
"                 .................................................................+.. @             ",
"                 .................................................................+.. @             ",
"                 .................................................................+.. @             ",
"                 .................................................................+.. @             ",
"                 .................................................................+.. @             ",
"                 .................................................................+.. @             ",
"                 .+....#.$+%.%...........................................$....$.#...#&              ",
"                 *.%*.*.=...#-.$........................................%.+..+.%.;#*.> ,            ",
"                ,#....#..'.%..*.++++++++++++++++++++++++++++++++++++++++%......%#.+.. )             ",
"                 .+..+.*+...#*$..........................................$.++.$.+%%+.@)             ",
"                 *.%*.*.'.....=.........................................+.%..%.+.%..$ !             ",
"                ) @@ & ..$#.$ ~                                          ......  &@ @&              ",
"                 @@@ @@#+.$.#>                                          {#+%%+#{, > ) ]]            ",
"                & &  & .*..$.  &                                         ...... &  ) @@             ",
"                     @ ...+.. @                                          .+..+.                     ",
"                     @ ...+.. @                                          .+..+.                     ",
"                     @ ...+.. @                                          .+..+.                     ",
"                     @ ...+.. @                                          .+..+.                     ",
"                     @ ...+.. @                                          .+..+.                     ",
"                     @ ...+.. @                                          .+..+.                     ",
"                     @ ...+.. @                                          .+..+.                     ",
"                     @ ...+.. @                                          .+..+.                     ",
"                @   {  ..%.+.@   , { & & { {      @& { , , { & & { {     ..+.*.                     ",
"                 ) &]@ #+.$.. @  @{ ]  &@  @, > { )  &&  @{ ]  &@  @, > ]%.*..;]                    ",
"                & >  &)..#.^.) {{  & &{   ,  & { ~ @,  @{  & &{   ,  & { #..=..                     ",
"                ,   /  +#...#,   )> ,  )@> &,@@ ,    ]   )> ,  )@> &,@@ &..-...                     ",
"                 >&@  ~..^++*&{      ,  & {&  ]&  )>  ]      ,  & {&  ]& ++..;.)                    ",
"                {  @ ) **.... @@,&&@    @) @ >   ]   ,  ,&&@    @) @ >  &..+$.*                     ",
"                @   ] &..'%%.       @  &    , )@  & @)@)    @  &    , )@&*.*..+,                    ",
"                   @  &  {{ &.#.+.+. & & {.%.%#. {& @ $.+.+. & & {.%.%#.. &&   @                    ",
"                        & )  .*..;.% ) & ]*%.%+.  & @&'.+..+@  @@&*...... { @& @                    ",
"                         ~ )&#......& {   ...+..  @   ...%+%& @ @ ..*+..*{ ]& >                     ",
"                        ~   {.'..-*'@] ] )-%...%&   &!#.+..']  @ &.#..+*.@,  ]                      ",
"                         , & #...... @@   ..+%*. @@   ..+.+. & & &..'+$.*@ {  &,                    ",
"                        )  >,..+*+%+,  @@ .'....  @@>@..%.#. &   {+**..*%~  @@&                     ",
"                         { ) .$%.#%.+..#+..+..'*..#=.$%+++..*%...#.%.....  { &@                     ",
"                        & ]@  ! , ~#.*.*++   @&)*+....&&{  @*..'#.' ,& &  { )  )                    ",
"                         )  ,    , .#.*... !  ] .=..(.   ,  ..*..%.    @@  ]  ,                     ",
"                                 , +.%+.+. @ , &%.*... @   ,%....*.@ @@                             ",
"                                @ @.+.+#.*,&@ & .%..+*, &   ...%+.+ @ @{                            ",
"                                , )%*+..+.  ,, ]'.**.. &   ,%...%.$&,&                              ",
"                                 ) +.+***. ,&   ...%%. ,& , .%.+.'.  @,&                            ",
"                                @ )   ,{, .%%...   &, .*+.%. , & ]  )                               ",
"                                 { @{@  & ..**.'] ,,  .+...%,   & ]   @{                            ",
"                                 @  & @) ,*+..%. & @&,*.%...   &  ,  {                              ",
"                                @ &@ @@ @ ...*.%& , @ .+...%,    {  @  &                            ",
"                                          ....+. @  @ .....+@                                       ",
"                                          ....+. @  @ .....+@                                       ",
"                                          ....+. @  @ .....+@                                       ",
"                                          ....+. @  @ .....+@                                       ",
"                                          ....+. @  @ .....+@                                       ",
"                                          ....+. @  @ .....+@                                       ",
"                                          ....+. @  @ .....+@                                       ",
"                                          ....+. @  @ .....+@                                       ",
"                         ] {@ {  ] +.#...#@    &@    ) @   )$..+..%, @   ) >  ]                     ",
"                        ) &  ,  ] !.;...*. @@{   ) &@    &  .+*.%.%   @&& ,  { @                    ",
"                         ) ~  >  ~ =...'%+  @& {@ @ & )  & &%.%..*')& &  @ {> ]&                    ",
"                        )  @,,    ].**#..%!&  &  _     >@)&@..%.#..,  ),&&&  &                      ",
"                         &&     & &*+..+.# ,  ,&@ )@,,&    @*....%$ @   @  &   &                    ",
"                        , , , ]&& @%%+%.+.  ]@& @,    @ & , .+....+  ! ~ {, @  {                    ",
"                         > & .;.+*.., ,,{:{&  ,&*...%. )   >  &  @...#.'., ] {@                     ",
"                        &  ) ....=.%  ,   & @>  ..$.+$]  @  @@  & +++...%)  {@ )                    ",
"                 & @  &&&   )#..+.+.   @  @ @@ @%..#.%  & @ @ & & .+.+..+ ) ,                       ",
"                & @@@    @{, #+$.*..  ,   &, &  ...*.%,,  &   @& )*+..^..& )& {@                    ",
"                { &  , ,)    ....*+. @, ) ,@  & .*...*& )& , )  { .*.#.#.  &                        ",
"                 { ]     ] @,.;.....   @ , , , @%.+... {   @  @@@&..+.%.. )   {&                    ",
"                ) @ ), .%+..+.$.*.$. { ,{ ...+.+.%.*.$.*....@&   ,...'+.*...++*                     ",
"                 { {&  %.'+.*&   &{ )  , &*...%.+..*..%.#%..   , ) &) ) &%.<..*{                    ",
"                 ]   @@.#.=.*&@ )  ] {& ,&%.*...++....*%..*. {  ) {  {  @**.%'.                     ",
"                @ @ &  +.*.$.  @ ,  &  @@ +.#..%.%..*...%.%. & &&  ,  ]  ..#+..,                    ",
"                     @ ...+.. @  @@ )  & &.*..$..........*%. @& &  & {&  .+..+.                     ",
"                     @ ...+.. @ ]] ) > , {'..'..........'..${  )  > ~ )  .+..+.                     ",
"                     @ ...+.. @   &@ @& ] .+*.*..........%'. )@  ~     { .+..+.                     ",
"                     @ ...+.. @  ! $..%..*%+...%.........%..%#.*.=.> &{  .+..+.                     ",
"                     @ ...+.. @  )@.+%%+++...%.+.........+.$.....'*  @@  .+..+.                     ",
"                     @ ...+.. @  ) ..+.##.#.%.;.........+...%+#..#.  & ] .+..+.                     ",
"                     @ ...+.. @ , >.*#;..'.+%=.*........#.%.+.#.#.; @&]  .+..+.                     ",
"                     @ ...+.. @   &#...#%.+................+..+...%)   ) .+..+.                     ",
"                 @    @+.#%.. >  > ..%#..........................=.  &{  ...+.. @    @>             ",
"                ) @  & .'..*.*%..%*.*..'........................%..*.%$.#.*.++*  ) )                ",
"                 { &@ ,'.'.*...%%...*.'..........................**%.*.#.#.*..+@{ @ )  _            ",
"                 )@  &)+..$..'....'..$..........................%=..'....+%..%%  {&& /              ",
"                 @ && @+*...'.''''.'...*..........................(.+%*.....$..    >  >&            ",
"                @ ,  , ..'.;.+%..%+.;.'.........................^..$...*+.'+.%. { { &,,             ",
"                &  &@  .$....$+##+$....$............................$.$.....#.$, ), ,  &            ",
"                 ...+..#...+%..**..%+............................=+....+.#...%...#+.. >             ",
"                 .................................................................+.. @             ",
"                 .................................................................+.. @             ",
"                 .................................................................+.. @             ",
"                 .................................................................+.. @             ",
"                 .................................................................+.. @             ",
"                 .................................................................+.. @             ",
"                 .................................................................+.. @             ",
"                 .................................................................+.. @             ",
"                 .................................................................+.. @             ",
"                 .................................................................+.. @             ",
"                 .................................................................+.. @             ",
"                 .................................................................+.. @             "};
